<svg id="Layer_1" enable-background="new 0 0 510.635 510.635" height="512" viewBox="0 0 510.635 510.635" width="512" xmlns="http://www.w3.org/2000/svg"><path d="m416.323 60.602h-322.011c-28.613 0-51.892 23.278-51.892 51.891v270.157c0 8.837 7.163 16 16 16h393.795c8.837 0 16-7.163 16-16v-270.158c0-28.612-23.278-51.89-51.892-51.89z" fill="#494949"/><path d="m468.215 112.492c0-28.612-23.278-51.891-51.892-51.891h-322.011c-28.613 0-51.892 23.278-51.892 51.891v141.045c70.123 18.652 148.209 24.671 216.572-5.198 79.455-34.716 152.653-25.475 209.223-4.73z" fill="#5b5b5b"/><path d="m494.635 350.649h-174.476c-6.256 0-12.069 3.215-15.4 8.51-2.832 4.5-7.842 7.49-13.552 7.49h-71.779c-5.71 0-10.721-2.99-13.552-7.49-3.332-5.295-9.145-8.51-15.4-8.51h-174.476c-8.837 0-16 7.163-16 16v42.984c0 22.312 18.087 40.399 40.399 40.399h429.836c22.312 0 40.399-18.087 40.399-40.399v-42.984c.001-8.836-7.163-16-15.999-16z" fill="#d3d1d1"/><path d="m510.635 387.11v-20.461c0-8.836-7.164-16-16-16h-174.476c-6.256 0-12.069 3.215-15.4 8.51-2.832 4.5-7.843 7.49-13.552 7.49h-71.779c-5.71 0-10.721-2.99-13.552-7.49-3.332-5.295-9.145-8.51-15.4-8.51h-174.476c-8.836 0-16 7.164-16 16v23.696c40.534 5.594 83.838 12.215 119.059 19.127 77.86 15.281 282.681-29.451 391.576-22.362z" fill="#e0e0e0"/><path d="m494.635 350.649h-26.42v-238.157c0-28.612-23.278-51.891-51.892-51.891h-322.011c-28.613 0-51.892 23.278-51.892 51.891v238.157h-26.42c-8.837 0-16 7.163-16 16v42.984c0 22.276 18.123 40.399 40.399 40.399h429.836c22.276 0 40.399-18.123 40.399-40.399v-42.984c.001-8.836-7.162-16-15.999-16zm-420.215-238.157c0-10.968 8.924-19.891 19.892-19.891h322.012c10.968 0 19.892 8.923 19.892 19.891v237.818h-361.796zm404.215 297.142c0 4.632-3.768 8.399-8.399 8.399h-429.837c-4.632 0-8.399-3.768-8.399-8.399v-26.984h171.69c1.333 7.491 7.863 13.184 15.737 13.184h71.779c7.874 0 14.405-5.692 15.737-13.184h171.69v26.984z"/><g fill="#eed572"><path d="m196.197 170.517c-6.249-6.249-16.379-6.249-22.627 0l-46.801 46.801c-6.244 6.242-6.248 16.38 0 22.627l46.801 46.802c3.125 3.125 7.219 4.687 11.314 4.687 14.125 0 21.423-17.205 11.314-27.313l-35.488-35.488 35.487-35.487c6.248-6.25 6.248-16.381 0-22.629z"/><path d="m337.065 170.517c-6.248-6.248-16.378-6.248-22.627 0-6.248 6.248-6.248 16.379 0 22.627l35.487 35.487-35.488 35.488c-10.109 10.109-2.81 27.313 11.314 27.313 4.095 0 8.189-1.563 11.314-4.687l46.801-46.802c6.244-6.243 6.248-16.381 0-22.627z"/><path d="m284.351 153.975c-8.237-3.205-17.509.877-20.711 9.113l-46.468 119.488c-4.098 10.537 3.739 21.803 14.908 21.803 6.407 0 12.454-3.875 14.916-10.205l46.468-119.488c3.202-8.236-.878-17.508-9.113-20.711z"/></g></svg>